<?xml version="1.0" encoding="UTF-8" standalone="no"?>
<svg
   xmlns:dc="http://purl.org/dc/elements/1.1/"
   xmlns:cc="http://creativecommons.org/ns#"
   xmlns:rdf="http://www.w3.org/1999/02/22-rdf-syntax-ns#"
   xmlns:svg="http://www.w3.org/2000/svg"
   xmlns="http://www.w3.org/2000/svg"
   id="svg8"
   preserveAspectRatio="xMidYMid meet"
   viewBox="0 0 910.000000 910.000000"
   height="910.000000pt"
   width="910.000000pt"
   version="1.0">
  <defs
     id="defs12" />
  <metadata
     id="metadata2">
Created by potrace 1.16, written by Peter Selinger 2001-2019
<rdf:RDF>
  <cc:Work
     rdf:about="">
    <dc:format>image/svg+xml</dc:format>
    <dc:type
       rdf:resource="http://purl.org/dc/dcmitype/StillImage" />
  </cc:Work>
</rdf:RDF>
</metadata>
  <g
     id="g6"
     stroke="none"
     fill="#000000"
     transform="translate(0.000000,910.000000) scale(0.100000,-0.100000)">
    <path
       id="path4"
       d="M4435 8516 c-27 -7 -70 -23 -95 -36 -43 -22 -627 -348 -780 -435 -41 -24 -266 -150 -500 -280 -234 -131 -497 -279 -585 -328 -145 -81 -253 -142 -745 -417 -85 -48 -254 -142 -375 -210 -247 -138 -288 -167 -338 -242 -72 -109 -67 44 -67 -2008 0 -2043 -4 -1912 65 -2016 47 -72 96 -108 290 -217 94 -52 685 -384 1315 -737 1700 -954 1730 -971 1778 -992 56 -25 171 -34 243 -19 65 14 11 -16 1724 946 160 90 587 330 950 533 383 215 680 388 707 412 32 28 60 66 85 118 l38 76 3 1855 c2 1379 0 1870 -8 1911 -17 80 -56 144 -125 208 -47 44 -135 97 -371 229 -170 94 -460 255 -644 358 -184 103 -434 243 -555 310 -121 67 -395 220 -610 340 -1034 578 -1131 631 -1183 643 -66 15 -151 14 -217 -2z m410 -1326 c772 -83 1478 -514 1919 -1175 36 -54 66 -104 66 -110 0 -8 -467 -279 -1090 -632 l-56 -32 -55 76 c-188 266 -470 451 -804 529 -115 27 -435 27 -550 0 -199 -46 -370 -125 -526 -243 -269 -202 -456 -517 -510 -858 -14 -90 -14 -300 1 -390 81 -507 422 -909 903 -1066 136 -44 253 -62 407 -62 274 0 513 73 743 226 113 75 272 233 348 344 l55 81 581 -320 582 -320 -52 -85 c-332 -542 -885 -964 -1505 -1148 -319 -94 -698 -129 -1028 -95 -753 79 -1444 482 -1884 1100 -316 443 -478 927 -494 1475 -26 900 421 1764 1174 2270 523 351 1141 502 1775 435z" />
  </g>
</svg>
